<svg width="16" height="21" viewBox="0 0 16 21" fill="none" xmlns="http://www.w3.org/2000/svg">
<path fill-rule="evenodd" clip-rule="evenodd" d="M3.88751 14.4896L1.84584 19.0229C1.80678 19.1094 1.81824 19.2104 1.87553 19.2859C1.93282 19.362 2.02709 19.4005 2.12136 19.3865L4.25417 19.0745L5.43699 20.8724C5.48959 20.9516 5.58074 20.9964 5.67605 20.9886C5.77084 20.9813 5.85418 20.9229 5.89324 20.8359L8.01615 16.1219L10.1391 20.8359C10.1781 20.9229 10.2615 20.9813 10.3563 20.9886C10.4511 20.9964 10.5427 20.9516 10.5948 20.8724L11.7776 19.0745L13.9109 19.3865C14.0052 19.4005 14.099 19.362 14.1568 19.2859C14.2141 19.2104 14.2255 19.1094 14.1865 19.0229L12.1448 14.4896C14.1136 13.1641 15.4094 10.9182 15.4094 8.3724C15.4094 4.30261 12.0969 0.997925 8.01615 0.997925C3.93542 0.997925 0.622925 4.30261 0.622925 8.3724C0.622925 10.9182 1.91824 13.1641 3.88751 14.4896ZM11.6984 14.7677C10.7224 15.3287 9.60574 15.6734 8.41407 15.7365L10.4198 20.1901L11.4333 18.6505C11.4886 18.5656 11.5886 18.5214 11.6891 18.5359L13.5162 18.8031L11.6984 14.7677ZM4.33386 14.7677L2.51615 18.8031L4.34324 18.5359C4.44376 18.5214 4.54324 18.5656 4.59897 18.6505L5.61251 20.1901L7.61772 15.7365C6.42657 15.6734 5.3099 15.3287 4.33386 14.7677ZM8.01615 1.51824C11.8089 1.51824 14.888 4.58959 14.888 8.3724C14.888 12.1557 11.8089 15.2271 8.01615 15.2271C4.22345 15.2271 1.14428 12.1557 1.14428 8.3724C1.14428 4.58959 4.22345 1.51824 8.01615 1.51824ZM8.01615 2.23855C4.6224 2.23855 1.86667 4.98699 1.86667 8.3724C1.86667 11.7578 4.6224 14.5063 8.01615 14.5063C11.4099 14.5063 14.1656 11.7578 14.1656 8.3724C14.1656 4.98699 11.4099 2.23855 8.01615 2.23855ZM8.01615 2.75886C11.1224 2.75886 13.6443 5.27449 13.6443 8.3724C13.6443 11.4708 11.1224 13.9865 8.01615 13.9865C4.9099 13.9865 2.38803 11.4708 2.38803 8.3724C2.38803 5.27449 4.9099 2.75886 8.01615 2.75886ZM8.25313 4.10157C8.21095 4.00886 8.11824 3.94949 8.01615 3.94949C7.91407 3.94949 7.82136 4.00886 7.77918 4.10157L6.67084 6.51876L4.02345 6.82293C3.9224 6.83438 3.83699 6.90418 3.80522 7.00105C3.77397 7.09793 3.80209 7.20418 3.87709 7.27293L5.83959 9.07084L5.31147 11.6766C5.29115 11.7761 5.33126 11.8787 5.41355 11.9386C5.49636 11.9979 5.60626 12.0042 5.69532 11.9542L8.01615 10.6479L10.337 11.9542C10.4261 12.0042 10.5359 11.9979 10.6182 11.9386C10.7011 11.8787 10.7412 11.7761 10.7208 11.6766L10.1922 9.07084L12.1552 7.27293C12.2302 7.20418 12.2583 7.09793 12.2266 7.00105C12.1953 6.90418 12.1099 6.83438 12.0089 6.82293L9.36095 6.51876L8.25313 4.10157ZM8.01615 4.8349L8.94793 6.86876C8.98595 6.95157 9.06459 7.00834 9.15522 7.01876L11.3823 7.27449L9.73126 8.78699C9.66407 8.84897 9.63438 8.94115 9.65209 9.03022L10.0964 11.2219L8.14428 10.1229C8.06459 10.0781 7.96772 10.0781 7.88803 10.1229L5.93543 11.2219L6.38022 9.03022C6.39793 8.94115 6.36824 8.84897 6.30105 8.78699L4.65001 7.27449L6.87709 7.01876C6.96772 7.00834 7.04636 6.95157 7.08386 6.86876L8.01615 4.8349Z" fill="#695454"/>
</svg>
