<svg width="50" height="50" viewBox="0 0 50 50" fill="none" xmlns="http://www.w3.org/2000/svg">
<path d="M25.0578 16.7516C24.1286 16.7516 23.3734 17.5068 23.3734 18.4349C23.3734 19.3641 24.1286 20.1193 25.0578 20.1193C25.9859 20.1193 26.7411 19.3641 26.7411 18.4349C26.7411 17.5068 25.9859 16.7516 25.0578 16.7516ZM25.0578 20.4646C23.9391 20.4646 23.0286 19.5547 23.0286 18.4349C23.0286 17.3172 23.9391 16.4062 25.0578 16.4062C26.1766 16.4062 27.0865 17.3172 27.0865 18.4349C27.0865 19.5547 26.1766 20.4646 25.0578 20.4646Z" fill="#695454"/>
<path d="M27.0297 35C26.524 35 26.0875 34.6224 26.013 34.1234L25.1443 28.2583C25.1365 28.2078 25.0927 28.1724 25.0396 28.1708C24.9891 28.1724 24.9474 28.2099 24.9411 28.2599L24.1693 34.1068C24.1021 34.6161 23.6646 35 23.1516 35H23.0859C22.799 35 22.5234 34.8786 22.3297 34.6677C22.1349 34.4568 22.038 34.1724 22.0625 33.8865L22.9833 22.9458C22.0161 22.7287 21.1427 22.0625 20.5677 21.0958C19.7859 19.7828 19.799 18.4755 19.8177 16.6662L19.8193 16.5052C19.8203 16.4099 19.8984 16.3313 19.9937 16.3344C20.0891 16.3349 20.1656 16.413 20.1641 16.5083L20.1625 16.6693C20.1453 18.4224 20.1318 19.6896 20.8641 20.9193C21.4177 21.8505 22.2687 22.4766 23.1974 22.6375C23.2859 22.6521 23.3474 22.7328 23.3406 22.8219L22.4062 33.9156C22.3896 34.1078 22.4531 34.2922 22.5833 34.4344C22.7141 34.5766 22.8927 34.6547 23.0859 34.6547H23.1516C23.4922 34.6547 23.7828 34.4 23.8281 34.0625L24.599 28.2156C24.6281 27.9969 24.8094 27.8328 25.0297 27.8266C25.2568 27.8177 25.4521 27.9844 25.4849 28.2083L26.3547 34.0724C26.4036 34.4047 26.6937 34.6547 27.0297 34.6547C27.2224 34.6547 27.4005 34.5766 27.5312 34.4344C27.6625 34.2922 27.7255 34.1078 27.7094 33.9156L26.774 22.8219C26.7672 22.7328 26.8286 22.6521 26.9172 22.6375C27.8458 22.4766 28.6969 21.8505 29.2505 20.9193C29.9828 19.6896 29.9703 18.4224 29.9521 16.6693L29.9505 16.5365C29.95 16.4412 30.0266 16.3641 30.1219 16.3625C30.1219 16.3625 30.1224 16.3625 30.1234 16.3625C30.2177 16.3625 30.2943 16.4391 30.2958 16.5333L30.2969 16.6662C30.3156 18.4755 30.3286 19.7828 29.5474 21.0958C28.9724 22.0625 28.0984 22.7287 27.1312 22.9458L28.0531 33.8865C28.0766 34.1719 27.9797 34.4568 27.7849 34.6677C27.5911 34.8786 27.3156 35 27.0297 35Z" fill="#695454"/>
<path d="M26.0781 21.5083H24.0365C23.2969 21.5083 22.6031 21.2047 22.1333 20.674C22.0333 20.5615 21.9458 20.4422 21.8724 20.3193C21.3109 19.375 21.3203 18.3875 21.3365 16.7516L21.3391 16.5469C21.3396 16.4521 21.4161 16.3755 21.5109 16.3755C21.5115 16.3755 21.5125 16.3755 21.5125 16.3755C21.6078 16.3771 21.6844 16.4547 21.6833 16.55L21.6812 16.7547C21.6656 18.3833 21.6568 19.2813 22.1693 20.1427C22.2312 20.2469 22.3062 20.349 22.3922 20.4458C22.7958 20.9021 23.3953 21.1641 24.0365 21.1641H26.0781C26.7193 21.1641 27.3187 20.9021 27.7224 20.4458C27.8083 20.3484 27.8833 20.2469 27.9453 20.1427C28.4578 19.2818 28.449 18.3844 28.4333 16.7547L28.4312 16.5234C28.4302 16.4281 28.5068 16.35 28.6021 16.349C28.6021 16.349 28.6031 16.349 28.6036 16.349C28.6984 16.349 28.775 16.4255 28.7755 16.5203L28.7781 16.7516C28.7943 18.3875 28.8036 19.375 28.2422 20.3193C28.1687 20.4422 28.0812 20.5615 27.9812 20.674C27.5115 21.2047 26.8177 21.5083 26.0781 21.5083Z" fill="#695454"/>
<path d="M31.0281 16.0484H27.6099C27.5146 16.0484 27.438 15.9708 27.438 15.8755C27.438 15.7802 27.5146 15.7031 27.6099 15.7031H31.0281C31.1234 15.7031 31.2005 15.7802 31.2005 15.8755C31.2005 15.9708 31.1234 16.0484 31.0281 16.0484Z" fill="#695454"/>
<path d="M31.0281 16.7516C30.9328 16.7516 30.8552 16.674 30.8552 16.5786V15.1724C30.8552 15.0771 30.9328 15 31.0281 15C31.1234 15 31.2005 15.0771 31.2005 15.1724V16.5786C31.2005 16.674 31.1234 16.7516 31.0281 16.7516Z" fill="#695454"/>
<path d="M27.6099 16.7516C27.5146 16.7516 27.438 16.674 27.438 16.5786V15.1724C27.438 15.0771 27.5146 15 27.6099 15C27.7052 15 27.7828 15.0771 27.7828 15.1724V16.5786C27.7828 16.674 27.7052 16.7516 27.6099 16.7516Z" fill="#695454"/>
<path d="M22.3896 16.0484H18.9719C18.8766 16.0484 18.799 15.9708 18.799 15.8755C18.799 15.7802 18.8766 15.7031 18.9719 15.7031H22.3896C22.4849 15.7031 22.5615 15.7802 22.5615 15.8755C22.5615 15.9708 22.4849 16.0484 22.3896 16.0484Z" fill="#695454"/>
<path d="M22.3896 16.7516C22.2943 16.7516 22.2172 16.674 22.2172 16.5786V15.1724C22.2172 15.0771 22.2943 15 22.3896 15C22.4849 15 22.5615 15.0771 22.5615 15.1724V16.5786C22.5615 16.674 22.4849 16.7516 22.3896 16.7516Z" fill="#695454"/>
<path d="M18.9719 16.7516C18.8766 16.7516 18.799 16.674 18.799 16.5786V15.1724C18.799 15.0771 18.8766 15 18.9719 15C19.0672 15 19.1443 15.0771 19.1443 15.1724V16.5786C19.1443 16.674 19.0672 16.7516 18.9719 16.7516Z" fill="#695454"/>
</svg>
