<svg xmlns="http://www.w3.org/2000/svg" xmlns:xlink="http://www.w3.org/1999/xlink" width="500" zoomAndPan="magnify" viewBox="0 0 375 374.999991" height="500" preserveAspectRatio="xMidYMid meet" version="1.0"><defs><clipPath id="79f9a6f213"><path d="M 174 116.761719 L 293 116.761719 L 293 212 L 174 212 Z M 174 116.761719 " clip-rule="nonzero"/></clipPath></defs><path fill="#fccca7" d="M 251.425781 210.804688 C 244.863281 210.46875 238.292969 210.351562 231.722656 210.238281 C 218.828125 210.007812 205.933594 209.78125 193.039062 209.550781 C 189.363281 209.484375 185.679688 209.421875 182.007812 209.671875 L 181.9375 209.675781 C 178.011719 209.945312 174.648438 206.957031 174.488281 203.035156 C 173.90625 188.867188 176.34375 174.578125 176.007812 160.367188 C 175.914062 156.414062 175.605469 152.464844 175.527344 148.507812 C 175.414062 142.523438 175.828125 136.542969 176.371094 130.578125 C 176.667969 127.3125 179.351562 124.773438 182.632812 124.648438 C 185.957031 124.523438 189.234375 124.492188 192.507812 124.457031 C 196.160156 124.417969 199.8125 124.382812 203.457031 124.539062 C 210.808594 124.855469 218.117188 125.960938 225.472656 126.273438 C 230.90625 126.5 236.347656 126.296875 241.789062 126.214844 C 251.6875 126.074219 261.582031 126.347656 271.523438 126.652344 C 276.113281 126.792969 279.734375 130.589844 279.652344 135.171875 C 279.230469 158.152344 278.816406 181.132812 278.433594 204.113281 C 278.367188 208.105469 275.089844 211.296875 271.089844 211.269531 C 265.070312 211.226562 256.667969 211.074219 251.425781 210.804688 " fill-opacity="1" fill-rule="nonzero"/><path fill="#fce4a7" d="M 257.5 209.316406 C 251 208.375 244.46875 207.652344 237.9375 206.929688 C 225.121094 205.507812 212.300781 204.089844 199.484375 202.671875 C 195.828125 202.265625 192.167969 201.863281 188.488281 201.773438 L 188.417969 201.769531 C 184.484375 201.675781 181.410156 198.390625 181.617188 194.46875 C 182.351562 180.308594 186.101562 166.308594 187.082031 152.128906 C 187.355469 148.179688 187.414062 144.222656 187.707031 140.273438 C 188.144531 134.304688 189.113281 128.386719 190.207031 122.5 C 190.804688 119.273438 193.707031 116.996094 196.988281 117.175781 C 200.3125 117.355469 203.578125 117.625 206.839844 117.894531 C 210.480469 118.195312 214.117188 118.496094 217.734375 118.988281 C 225.027344 119.984375 232.203125 121.757812 239.492188 122.746094 C 244.882812 123.476562 250.320312 123.773438 255.746094 124.199219 C 265.617188 124.96875 275.445312 126.160156 285.316406 127.382812 C 289.871094 127.945312 293.125 132.058594 292.617188 136.613281 C 290.070312 159.457031 287.523438 182.296875 285.015625 205.144531 C 284.578125 209.113281 281.019531 211.992188 277.039062 211.59375 C 271.050781 210.992188 262.699219 210.066406 257.5 209.316406 " fill-opacity="1" fill-rule="nonzero"/><path fill="#f0afaf" d="M 240.59375 172.53125 C 239.785156 171.335938 237.4375 169.410156 236.019531 169.128906 C 235.492188 169.023438 234.933594 168.996094 234.429688 169.183594 C 233.429688 169.550781 232.878906 170.6875 232.886719 171.753906 C 232.894531 172.820312 233.351562 173.828125 233.84375 174.773438 C 235.144531 177.292969 236.738281 179.65625 238.488281 181.902344 C 240.289062 181.089844 241.882812 179.890625 243.460938 178.703125 C 245.191406 177.398438 247.042969 175.917969 247.519531 173.808594 C 247.679688 173.113281 247.660156 172.339844 247.257812 171.75 C 246.613281 170.804688 245.273438 170.6875 244.128906 170.753906 C 242.652344 170.84375 242.246094 172.148438 240.59375 172.53125 " fill-opacity="1" fill-rule="nonzero"/><g clip-path="url(#79f9a6f213)"><path fill="#000000" d="M 291.339844 130.765625 C 291.328125 130.730469 291.3125 130.695312 291.285156 130.667969 C 291.277344 130.664062 291.265625 130.660156 291.261719 130.652344 C 289.902344 128.78125 287.804688 127.449219 285.34375 127.144531 C 274.886719 125.851562 265.441406 124.71875 255.765625 123.960938 C 254.539062 123.867188 253.3125 123.777344 252.082031 123.6875 C 247.957031 123.386719 243.691406 123.078125 239.523438 122.511719 C 235.871094 122.015625 232.179688 121.3125 228.613281 120.628906 C 225.070312 119.949219 221.402344 119.25 217.769531 118.753906 C 214.136719 118.257812 210.4375 117.953125 206.859375 117.660156 C 203.65625 117.394531 200.34375 117.121094 197.003906 116.9375 C 193.585938 116.753906 190.589844 119.132812 189.972656 122.457031 C 189.863281 123.042969 189.753906 123.644531 189.644531 124.253906 C 187.328125 124.28125 184.976562 124.324219 182.625 124.414062 C 180.644531 124.488281 178.875 125.417969 177.679688 126.851562 C 177.664062 126.863281 177.652344 126.878906 177.640625 126.894531 C 176.808594 127.910156 176.261719 129.171875 176.136719 130.558594 C 175.652344 135.898438 175.171875 142.207031 175.292969 148.515625 C 175.332031 150.570312 175.4375 152.660156 175.539062 154.675781 C 175.628906 156.542969 175.726562 158.476562 175.773438 160.375 C 175.933594 167.171875 175.449219 174.105469 174.984375 180.8125 C 174.472656 188.109375 173.949219 195.652344 174.25 203.046875 C 174.410156 206.90625 177.570312 209.929688 181.445312 209.929688 C 181.613281 209.929688 181.785156 209.925781 181.953125 209.914062 L 182.023438 209.90625 C 183.476562 209.808594 185.011719 209.753906 186.769531 209.734375 C 186.796875 209.746094 186.828125 209.753906 186.859375 209.753906 C 186.890625 209.753906 186.921875 209.746094 186.949219 209.734375 C 187.304688 209.730469 187.660156 209.726562 188.03125 209.726562 C 189.707031 209.726562 191.398438 209.757812 193.035156 209.789062 L 231.730469 210.472656 C 238.183594 210.585938 244.859375 210.707031 251.410156 211.042969 C 255.175781 211.234375 260.503906 211.363281 265.328125 211.4375 C 265.332031 211.449219 265.335938 211.457031 265.339844 211.46875 C 265.378906 211.554688 265.464844 211.605469 265.554688 211.605469 C 265.589844 211.605469 265.621094 211.597656 265.652344 211.585938 C 265.714844 211.558594 265.757812 211.503906 265.777344 211.445312 C 267.683594 211.472656 269.496094 211.492188 271.085938 211.503906 L 271.140625 211.503906 C 271.628906 211.503906 272.105469 211.457031 272.566406 211.367188 C 274.15625 211.535156 275.667969 211.691406 277.015625 211.828125 C 277.269531 211.851562 277.523438 211.867188 277.777344 211.867188 C 281.617188 211.867188 284.828125 208.988281 285.25 205.167969 C 287.773438 182.191406 290.390625 158.714844 292.851562 136.640625 C 293.09375 134.488281 292.5 132.421875 291.339844 130.765625 Z M 196.628906 117.402344 C 196.742188 117.402344 196.859375 117.402344 196.976562 117.410156 C 200.3125 117.589844 203.621094 117.863281 206.820312 118.128906 C 210.394531 118.425781 214.085938 118.726562 217.703125 119.222656 C 221.328125 119.714844 224.984375 120.417969 228.523438 121.09375 C 232.097656 121.777344 235.792969 122.484375 239.460938 122.980469 C 243.640625 123.546875 247.914062 123.859375 252.050781 124.160156 C 253.277344 124.25 254.5 124.335938 255.726562 124.433594 C 265.394531 125.1875 274.832031 126.320312 285.285156 127.617188 C 287.5625 127.898438 289.511719 129.109375 290.796875 130.824219 C 287.691406 133.941406 284.046875 138.144531 280.191406 142.59375 C 272.78125 151.144531 264.378906 160.839844 256.078125 167.308594 C 253.132812 169.601562 250.378906 171.34375 247.808594 172.539062 C 247.75 172.195312 247.632812 171.882812 247.453125 171.617188 C 246.949219 170.878906 246.003906 170.503906 244.644531 170.503906 C 244.464844 170.503906 244.289062 170.511719 244.117188 170.519531 C 243.277344 170.570312 242.742188 170.988281 242.226562 171.390625 C 241.792969 171.730469 241.351562 172.078125 240.691406 172.261719 C 239.820312 171.082031 237.5625 169.195312 236.066406 168.898438 C 235.394531 168.761719 234.832031 168.785156 234.347656 168.960938 C 233.167969 169.394531 232.640625 170.714844 232.648438 171.757812 C 232.652344 171.84375 232.660156 171.929688 232.664062 172.015625 C 215.324219 159.941406 204.328125 142.804688 192.292969 119.136719 C 193.429688 118.054688 194.964844 117.402344 196.628906 117.402344 Z M 247.289062 173.757812 C 246.84375 175.722656 245.15625 177.128906 243.320312 178.515625 C 241.824219 179.640625 240.277344 180.804688 238.558594 181.609375 C 236.699219 179.203125 235.222656 176.929688 234.050781 174.667969 C 233.605469 173.804688 233.132812 172.800781 233.121094 171.753906 C 233.117188 170.871094 233.546875 169.757812 234.511719 169.40625 C 234.734375 169.324219 234.984375 169.28125 235.257812 169.28125 C 235.476562 169.28125 235.71875 169.308594 235.972656 169.359375 C 237.277344 169.621094 239.570312 171.441406 240.398438 172.660156 C 240.453125 172.742188 240.550781 172.78125 240.644531 172.761719 C 241.492188 172.566406 242.039062 172.140625 242.515625 171.765625 C 243.019531 171.371094 243.453125 171.03125 244.144531 170.992188 C 244.308594 170.980469 244.472656 170.976562 244.644531 170.976562 C 245.855469 170.976562 246.644531 171.273438 247.0625 171.882812 C 247.488281 172.507812 247.390625 173.324219 247.289062 173.757812 Z M 190.4375 122.542969 C 190.65625 121.371094 191.191406 120.332031 191.945312 119.496094 C 200.84375 136.984375 209.191406 150.914062 219.960938 161.878906 C 211.898438 173.011719 200.554688 190.285156 193.21875 201.804688 C 191.648438 201.675781 190.066406 201.574219 188.492188 201.535156 L 188.421875 201.535156 C 186.578125 201.492188 184.875 200.726562 183.628906 199.382812 C 182.386719 198.046875 181.757812 196.308594 181.851562 194.484375 C 182.234375 187.121094 183.453125 179.667969 184.636719 172.464844 C 185.722656 165.820312 186.847656 158.949219 187.320312 152.144531 C 187.453125 150.242188 187.535156 148.308594 187.613281 146.4375 C 187.703125 144.421875 187.789062 142.335938 187.941406 140.292969 C 188.402344 134.023438 189.464844 127.800781 190.4375 122.542969 Z M 182.640625 124.886719 C 184.957031 124.796875 187.269531 124.757812 189.558594 124.726562 C 188.710938 129.476562 187.867188 134.847656 187.46875 140.257812 C 187.449219 140.519531 187.433594 140.785156 187.417969 141.050781 C 184.351562 136.691406 181.285156 132.023438 178.140625 127.039062 C 179.25 125.773438 180.855469 124.953125 182.640625 124.886719 Z M 186.722656 209.261719 C 184.972656 209.28125 183.441406 209.335938 181.992188 209.4375 L 181.921875 209.441406 C 181.761719 209.453125 181.601562 209.457031 181.445312 209.457031 C 177.824219 209.457031 174.871094 206.632812 174.726562 203.027344 C 174.421875 195.660156 174.949219 188.128906 175.457031 180.84375 C 175.921875 174.128906 176.40625 167.183594 176.246094 160.363281 C 176.199219 158.457031 176.101562 156.523438 176.011719 154.65625 C 175.910156 152.640625 175.804688 150.554688 175.765625 148.503906 C 175.644531 142.222656 176.125 135.929688 176.609375 130.601562 C 176.714844 129.417969 177.152344 128.328125 177.824219 127.429688 C 181.058594 132.546875 184.210938 137.335938 187.367188 141.800781 C 187.273438 143.347656 187.207031 144.902344 187.140625 146.417969 C 187.0625 148.285156 186.980469 150.214844 186.847656 152.109375 C 186.378906 158.894531 185.253906 165.753906 184.167969 172.386719 C 182.984375 179.605469 181.761719 187.070312 181.378906 194.457031 C 181.277344 196.410156 181.953125 198.273438 183.28125 199.707031 C 184.617188 201.144531 186.4375 201.960938 188.410156 202.007812 L 188.480469 202.007812 C 189.132812 202.023438 189.789062 202.054688 190.441406 202.089844 C 189.113281 204.632812 187.859375 207.046875 186.722656 209.261719 Z M 251.4375 210.570312 C 244.875 210.234375 238.195312 210.113281 231.726562 210 L 193.042969 209.316406 C 191.40625 209.285156 189.710938 209.253906 188.03125 209.253906 C 187.769531 209.253906 187.511719 209.257812 187.257812 209.257812 C 188.394531 207.046875 189.636719 204.644531 190.960938 202.117188 C 191.714844 202.160156 192.472656 202.214844 193.226562 202.277344 C 193.261719 202.292969 193.296875 202.304688 193.332031 202.304688 C 193.355469 202.304688 193.378906 202.300781 193.402344 202.292969 C 195.4375 202.464844 197.464844 202.6875 199.457031 202.90625 L 237.925781 207.164062 C 244.339844 207.875 250.972656 208.609375 257.46875 209.546875 C 259.574219 209.851562 262.175781 210.183594 264.90625 210.507812 C 264.976562 210.660156 265.042969 210.8125 265.113281 210.960938 C 260.355469 210.886719 255.136719 210.757812 251.4375 210.570312 Z M 265.636719 210.972656 C 265.574219 210.839844 265.515625 210.707031 265.453125 210.570312 C 266.746094 210.722656 268.058594 210.875 269.355469 211.019531 C 268.183594 211.007812 266.929688 210.992188 265.636719 210.972656 Z M 257.535156 209.082031 C 251.035156 208.140625 244.398438 207.40625 237.964844 206.691406 L 199.507812 202.4375 C 197.613281 202.226562 195.691406 202.015625 193.753906 201.847656 C 201.074219 190.359375 212.292969 173.28125 220.296875 162.222656 C 224.101562 166.054688 228.210938 169.527344 232.753906 172.65625 C 232.925781 173.464844 233.285156 174.214844 233.632812 174.882812 C 234.839844 177.21875 236.367188 179.5625 238.300781 182.046875 C 238.347656 182.105469 238.417969 182.136719 238.488281 182.136719 C 238.519531 182.136719 238.554688 182.132812 238.585938 182.117188 C 240.417969 181.292969 242.039062 180.070312 243.605469 178.890625 C 245.515625 177.453125 247.269531 175.984375 247.75 173.859375 C 247.816406 173.578125 247.84375 173.304688 247.847656 173.042969 C 250.5 171.828125 253.335938 170.042969 256.371094 167.679688 C 256.824219 167.328125 257.277344 166.960938 257.730469 166.589844 C 260.761719 173.921875 263.296875 183.289062 265.75 192.355469 C 267.550781 199.023438 269.257812 205.328125 271.117188 210.734375 C 266.390625 210.222656 261.203125 209.613281 257.535156 209.082031 Z M 292.382812 136.585938 C 289.917969 158.664062 287.304688 182.140625 284.777344 205.117188 C 284.386719 208.695312 281.375 211.394531 277.777344 211.394531 C 277.539062 211.394531 277.300781 211.382812 277.0625 211.359375 C 275.4375 211.195312 273.582031 211.003906 271.636719 210.792969 C 269.757812 205.351562 268.03125 198.976562 266.207031 192.230469 C 263.734375 183.097656 261.179688 173.65625 258.109375 166.277344 C 265.871094 159.835938 273.640625 150.875 280.550781 142.902344 C 284.375 138.488281 287.992188 134.316406 291.074219 131.214844 C 292.089844 132.75 292.601562 134.632812 292.382812 136.585938 Z M 227.171875 138.855469 C 227.4375 137.855469 227.710938 136.824219 227.988281 135.722656 C 228.117188 135.28125 228.242188 134.871094 228.367188 134.460938 C 228.488281 134.050781 228.613281 133.640625 228.738281 133.210938 C 228.78125 133.046875 228.800781 132.832031 228.820312 132.609375 C 228.859375 132.183594 228.898438 131.742188 229.125 131.386719 C 229.214844 131.246094 229.382812 131.1875 229.535156 131.238281 C 230.160156 131.449219 230.652344 132.558594 231.179688 134.949219 C 231.324219 135.488281 231.429688 136.058594 231.53125 136.609375 C 231.5625 136.761719 231.589844 136.914062 231.617188 137.066406 C 231.964844 136.300781 232.40625 135.621094 232.867188 134.914062 C 232.960938 134.769531 233.058594 134.617188 233.15625 134.46875 C 233.335938 134.207031 233.511719 133.839844 233.699219 133.449219 C 234.113281 132.589844 234.582031 131.617188 235.316406 131.25 C 235.433594 131.195312 235.570312 131.203125 235.679688 131.277344 C 235.785156 131.351562 235.84375 131.476562 235.828125 131.605469 C 235.71875 132.640625 235.785156 133.6875 235.851562 134.703125 C 235.890625 135.371094 235.9375 136.058594 235.929688 136.738281 C 235.890625 137.882812 235.769531 139.023438 235.652344 140.125 C 235.636719 140.308594 235.480469 140.441406 235.300781 140.441406 C 235.289062 140.441406 235.277344 140.441406 235.265625 140.441406 C 235.070312 140.417969 234.929688 140.246094 234.949219 140.050781 C 235.0625 138.960938 235.183594 137.835938 235.21875 136.722656 C 235.226562 136.078125 235.1875 135.433594 235.140625 134.746094 C 235.09375 133.992188 235.042969 133.214844 235.066406 132.429688 C 234.796875 132.804688 234.558594 133.300781 234.339844 133.757812 C 234.140625 134.171875 233.953125 134.5625 233.746094 134.859375 C 233.65625 135 233.558594 135.152344 233.460938 135.300781 C 232.816406 136.296875 232.203125 137.238281 231.875 138.417969 C 231.835938 138.570312 231.695312 138.675781 231.535156 138.675781 C 231.375 138.675781 231.234375 138.566406 231.191406 138.414062 C 231.042969 137.859375 230.9375 137.289062 230.835938 136.738281 C 230.734375 136.199219 230.632812 135.644531 230.492188 135.117188 C 230.109375 133.386719 229.789062 132.589844 229.578125 132.222656 C 229.554688 132.367188 229.539062 132.519531 229.527344 132.671875 C 229.503906 132.914062 229.484375 133.164062 229.425781 133.398438 C 229.292969 133.84375 229.167969 134.253906 229.042969 134.664062 C 228.921875 135.074219 228.796875 135.480469 228.671875 135.910156 C 228.398438 137 228.125 138.035156 227.859375 139.035156 C 227.808594 139.226562 227.613281 139.339844 227.425781 139.289062 C 227.234375 139.238281 227.125 139.042969 227.171875 138.855469 Z M 237.566406 137.945312 C 237.597656 138.507812 237.761719 139.054688 238.09375 139.507812 C 238.527344 140.042969 239.367188 140.339844 240.164062 140.339844 C 240.671875 140.339844 241.164062 140.21875 241.523438 139.960938 C 241.679688 139.847656 241.71875 139.628906 241.601562 139.46875 C 241.488281 139.308594 241.269531 139.273438 241.109375 139.386719 C 240.496094 139.824219 239.117188 139.640625 238.65625 139.074219 C 238.390625 138.714844 238.269531 138.261719 238.261719 137.789062 C 238.476562 137.785156 238.71875 137.792969 238.890625 137.796875 C 239.28125 137.808594 239.621094 137.816406 239.839844 137.769531 C 240.617188 137.632812 241.929688 137.082031 242.15625 136.1875 C 242.242188 135.847656 242.203125 135.332031 241.53125 134.804688 C 240.578125 134.074219 239.507812 134.128906 238.664062 134.953125 C 238.113281 135.488281 237.722656 136.316406 237.597656 137.175781 C 237.484375 137.214844 237.394531 137.273438 237.324219 137.347656 C 237.1875 137.492188 237.195312 137.714844 237.339844 137.847656 C 237.402344 137.910156 237.484375 137.941406 237.566406 137.945312 Z M 239.160156 135.460938 C 239.574219 135.054688 240.246094 134.710938 241.097656 135.363281 C 241.394531 135.597656 241.519531 135.816406 241.46875 136.015625 C 241.351562 136.476562 240.453125 136.941406 239.703125 137.074219 C 239.550781 137.105469 239.210938 137.097656 238.90625 137.089844 C 238.738281 137.082031 238.582031 137.082031 238.4375 137.082031 C 238.402344 137.082031 238.363281 137.082031 238.328125 137.082031 C 238.457031 136.449219 238.757812 135.851562 239.160156 135.460938 Z M 244.234375 140.386719 C 244.105469 138.652344 243.980469 137.015625 244.164062 135.304688 C 244.183594 135.109375 244.359375 134.964844 244.550781 134.988281 C 244.746094 135.007812 244.890625 135.183594 244.867188 135.378906 C 244.773438 136.261719 244.765625 137.132812 244.796875 138.015625 C 245.144531 136.875 245.675781 135.703125 246.441406 135.355469 C 246.730469 135.222656 247.191406 135.148438 247.734375 135.53125 C 247.894531 135.644531 247.933594 135.863281 247.820312 136.023438 C 247.707031 136.183594 247.484375 136.222656 247.324219 136.109375 C 247.039062 135.90625 246.859375 135.945312 246.734375 136 C 245.773438 136.433594 245.085938 139.441406 244.960938 140.621094 C 244.941406 140.804688 244.789062 140.941406 244.605469 140.941406 C 244.605469 140.941406 244.601562 140.941406 244.601562 140.941406 C 244.417969 140.9375 244.265625 140.792969 244.253906 140.613281 Z M 248.652344 137.898438 C 248.964844 136.652344 249.910156 135.828125 251.179688 135.695312 C 251.832031 135.621094 252.242188 135.796875 252.679688 135.980469 C 252.800781 136.03125 252.929688 136.085938 253.070312 136.136719 C 253.253906 136.203125 253.347656 136.410156 253.28125 136.59375 C 253.214844 136.777344 253.007812 136.871094 252.824219 136.804688 C 252.671875 136.746094 252.535156 136.6875 252.402344 136.632812 C 252.011719 136.464844 251.726562 136.34375 251.257812 136.398438 C 250.28125 136.503906 249.582031 137.113281 249.339844 138.074219 C 249.132812 138.859375 249.066406 139.902344 249.9375 140.421875 C 249.949219 140.429688 249.960938 140.4375 249.972656 140.445312 C 250.457031 140.824219 251.320312 140.988281 251.871094 140.597656 C 252.03125 140.488281 252.253906 140.523438 252.367188 140.683594 C 252.480469 140.84375 252.441406 141.066406 252.28125 141.179688 C 251.925781 141.429688 251.515625 141.535156 251.105469 141.535156 C 250.527344 141.535156 249.957031 141.324219 249.554688 141.019531 C 248.59375 140.433594 248.273438 139.328125 248.652344 137.898438 Z M 254.375 141.742188 C 254.582031 140.726562 254.648438 139.546875 254.710938 138.402344 C 254.75 137.71875 254.792969 137.011719 254.863281 136.351562 C 254.882812 136.15625 255.058594 136.011719 255.25 136.035156 C 255.445312 136.054688 255.589844 136.230469 255.566406 136.425781 C 255.5 137.070312 255.460938 137.769531 255.421875 138.445312 C 255.355469 139.613281 255.285156 140.820312 255.070312 141.882812 C 255.035156 142.050781 254.886719 142.167969 254.722656 142.167969 C 254.699219 142.167969 254.675781 142.164062 254.652344 142.160156 C 254.460938 142.121094 254.335938 141.933594 254.375 141.742188 Z M 255.152344 134.367188 L 255.167969 134.207031 C 255.191406 134.011719 255.363281 133.871094 255.558594 133.894531 C 255.753906 133.914062 255.894531 134.085938 255.875 134.28125 L 255.859375 134.441406 C 255.839844 134.625 255.683594 134.757812 255.503906 134.757812 C 255.492188 134.757812 255.480469 134.757812 255.46875 134.757812 C 255.273438 134.734375 255.132812 134.5625 255.152344 134.367188 Z M 255.152344 134.367188 " fill-opacity="1" fill-rule="nonzero"/></g></svg>